<?xml version="1.0" encoding="UTF-8" standalone="no"?>
<!DOCTYPE svg PUBLIC "-//W3C//DTD SVG 1.1//EN" "http://www.w3.org/Graphics/SVG/1.1/DTD/svg11.dtd">
<svg xmlns="http://www.w3.org/2000/svg" version="1.1" viewBox="0.00 0.00 1920.00 600.00">
<g stroke-width="2.00" fill="none" stroke-linecap="butt">
<path stroke="#4f0808" vector-effect="non-scaling-stroke" d="
  M 375.77 414.90
  C 378.65 417.05 380.87 420.03 383.28 422.73
  A 1.17 1.17 0.0 0 0 385.12 422.62
  C 396.47 406.32 423.24 397.70 442.00 396.02
  Q 451.11 395.20 473.09 396.00
  C 477.89 396.17 482.47 397.43 487.59 398.13
  Q 509.47 401.12 526.41 413.05
  Q 543.95 425.43 536.52 446.54
  Q 536.27 447.26 536.98 447.00
  Q 541.59 445.33 551.30 440.80
  C 617.88 409.73 676.58 357.82 692.70 283.28
  C 696.89 263.92 697.04 243.73 694.51 224.15
  C 693.94 219.75 692.49 215.26 691.42 210.78
  C 687.46 194.18 681.62 178.64 673.37 163.75
  A 0.63 0.62 56.2 0 0 672.44 163.56
  C 642.11 187.03 605.04 200.04 568.22 208.90
  Q 521.76 220.07 474.18 224.62
  C 390.36 232.63 303.53 230.43 220.81 213.71
  C 177.84 205.03 130.27 191.05 95.64 163.45
  Q 95.21 163.10 94.91 163.57
  C 87.28 175.44 81.19 191.89 77.77 205.95
  C 76.05 212.99 73.92 220.19 73.12 226.89
  Q 70.03 252.79 74.20 278.62
  C 74.50 280.48 75.30 282.18 75.74 284.24
  C 92.36 362.66 159.93 418.52 230.94 447.01
  A 0.43 0.43 0.0 0 0 231.50 446.44
  C 225.60 432.12 231.63 418.82 244.31 411.06
  C 265.89 397.86 291.63 395.14 316.48 395.70
  Q 328.51 395.97 336.37 397.47
  Q 357.96 401.58 375.77 414.90"
/>
<path stroke="#808080" vector-effect="non-scaling-stroke" d="
  M 1134.99 311.01
  L 1155.46 221.53
  Q 1155.59 221.00 1155.04 221.00
  L 1120.53 221.00
  Q 1119.85 221.00 1119.70 221.66
  L 1084.99 372.32
  A 0.55 0.55 0.0 0 0 1085.53 373.00
  L 1120.01 373.00
  Q 1120.55 373.00 1120.67 372.47
  L 1128.51 339.32
  A 1.82 1.77 -14.7 0 1 1129.07 338.39
  L 1143.59 325.57
  Q 1143.94 325.26 1144.13 325.68
  L 1165.16 372.60
  Q 1165.34 373.00 1165.77 373.00
  L 1202.21 373.00
  Q 1202.76 373.00 1202.53 372.50
  L 1173.76 312.01
  Q 1173.53 311.53 1173.92 311.17
  L 1223.68 264.63
  A 0.37 0.36 -66.3 0 0 1223.44 264.00
  L 1183.73 264.00
  A 1.28 1.27 22.7 0 0 1182.84 264.36
  L 1135.25 311.16
  Q 1134.88 311.52 1134.99 311.01"
/>
<path stroke="#808080" vector-effect="non-scaling-stroke" d="
  M 756.26 275.75
  L 768.75 338.44
  A 0.69 0.69 0.0 0 0 769.43 339.00
  L 794.53 339.00
  Q 795.15 339.00 795.49 338.48
  L 834.39 279.31
  Q 834.41 279.28 834.40 279.32
  Q 823.68 325.66 812.92 372.26
  Q 812.75 373.00 813.51 373.00
  L 850.04 373.00
  A 0.70 0.69 6.2 0 0 850.72 372.46
  L 884.03 228.71
  A 0.58 0.58 0.0 0 0 883.46 228.00
  L 840.04 228.00
  Q 839.52 228.00 839.24 228.42
  L 790.76 299.81
  Q 790.43 300.30 790.30 299.72
  L 774.74 228.55
  Q 774.62 228.00 774.05 228.00
  L 731.96 228.00
  A 1.02 1.02 0.0 0 0 730.97 228.79
  L 697.75 372.30
  Q 697.59 373.00 698.30 373.00
  L 732.95 373.00
  A 0.68 0.68 0.0 0 0 733.61 372.47
  L 756.01 275.75
  Q 756.14 275.17 756.26 275.75"
/>
<path stroke="#808080" vector-effect="non-scaling-stroke" d="
  M 1272.18 362.01
  L 1269.82 372.38
  A 0.51 0.51 0.0 0 0 1270.32 373.00
  L 1305.72 373.00
  Q 1306.19 373.00 1306.30 372.55
  Q 1314.78 336.95 1322.77 301.24
  Q 1325.67 288.29 1325.24 283.09
  C 1323.50 262.29 1300.90 258.01 1284.23 257.25
  Q 1255.11 255.93 1227.74 262.49
  A 1.06 1.05 -1.4 0 0 1226.95 263.31
  L 1221.81 289.50
  Q 1221.71 290.01 1222.23 290.00
  C 1228.15 289.91 1234.24 287.23 1239.89 285.52
  C 1249.97 282.47 1293.54 276.06 1287.03 298.47
  Q 1286.90 298.91 1286.44 298.94
  Q 1268.09 299.74 1246.75 303.23
  C 1223.01 307.10 1198.22 318.92 1198.86 347.19
  C 1199.13 358.83 1204.04 367.54 1214.43 372.61
  C 1221.33 375.98 1228.07 376.20 1235.63 375.95
  C 1250.36 375.45 1259.86 369.26 1271.83 361.76
  Q 1272.31 361.45 1272.18 362.01"
/>
<path stroke="#808080" vector-effect="non-scaling-stroke" d="
  M 1640.44 318.56
  C 1653.00 327.98 1670.45 330.13 1685.34 334.68
  C 1689.08 335.83 1691.79 337.94 1691.51 341.95
  C 1691.05 348.45 1682.35 350.72 1677.00 351.23
  Q 1648.69 353.92 1627.41 337.60
  C 1625.41 336.06 1623.40 336.68 1622.78 339.29
  Q 1619.66 352.50 1616.67 365.93
  Q 1616.55 366.48 1617.07 366.68
  C 1638.35 374.97 1663.20 377.06 1686.23 373.16
  C 1701.48 370.58 1719.02 362.58 1724.54 347.20
  C 1729.39 333.69 1725.90 320.21 1712.44 313.53
  C 1699.91 307.30 1687.01 305.49 1674.16 301.55
  C 1669.42 300.10 1664.64 297.22 1666.56 291.74
  C 1668.40 286.51 1674.50 284.56 1679.69 283.90
  Q 1705.34 280.64 1725.53 295.74
  Q 1726.62 296.56 1728.96 295.81
  Q 1729.37 295.68 1729.47 295.26
  L 1735.54 268.78
  A 1.52 1.52 0.0 0 0 1734.54 267.00
  Q 1712.40 259.66 1690.47 260.01
  C 1672.60 260.29 1649.46 264.16 1637.79 279.56
  C 1629.21 290.88 1627.96 309.21 1640.44 318.56"
/>
<path stroke="#808080" vector-effect="non-scaling-stroke" d="
  M 1763.52 324.00
  L 1844.00 324.00
  A 0.37 0.36 10.5 0 0 1844.34 323.77
  Q 1850.40 308.81 1848.81 293.07
  C 1845.78 263.25 1816.35 258.62 1792.24 260.29
  C 1761.55 262.41 1737.05 281.48 1730.01 312.00
  C 1725.79 330.29 1728.29 351.10 1743.28 362.73
  C 1766.47 380.73 1806.23 376.99 1832.17 366.35
  A 1.00 0.98 86.0 0 0 1832.76 365.66
  L 1839.06 338.77
  Q 1839.22 338.11 1838.54 338.04
  C 1836.65 337.85 1835.14 337.82 1833.35 338.81
  C 1819.45 346.42 1804.51 351.14 1788.82 349.44
  C 1773.47 347.78 1762.73 341.13 1763.03 324.49
  Q 1763.04 324.00 1763.52 324.00"
/>
<path stroke="#808080" vector-effect="non-scaling-stroke" d="
  M 936.62 362.33
  L 934.45 371.96
  Q 934.21 373.00 935.27 373.00
  L 968.98 373.00
  Q 969.56 373.00 969.69 372.44
  Q 978.02 336.49 986.34 300.54
  C 987.64 294.90 988.31 289.19 987.64 284.07
  C 983.34 251.03 913.82 261.51 893.59 266.38
  A 0.85 0.84 -1.7 0 0 892.96 267.04
  L 888.02 292.29
  Q 887.89 292.96 888.58 292.99
  C 889.66 293.03 891.26 293.14 892.32 292.76
  C 908.12 287.13 923.16 283.33 939.22 286.31
  C 947.95 287.93 953.74 291.68 950.98 301.48
  Q 950.85 301.93 950.39 301.95
  Q 931.08 302.87 912.01 306.06
  C 887.68 310.12 863.49 322.29 865.94 351.33
  C 867.07 364.79 877.24 373.73 890.19 375.51
  C 908.74 378.06 921.41 372.03 936.25 362.08
  Q 936.75 361.74 936.62 362.33"
/>
<path stroke="#808080" vector-effect="non-scaling-stroke" d="
  M 993.46 296.36
  C 990.11 326.79 1027.80 329.62 1047.83 335.87
  C 1051.58 337.04 1054.09 339.58 1053.42 343.55
  C 1052.57 348.57 1046.60 351.12 1042.01 351.82
  Q 1012.37 356.35 988.98 338.27
  Q 987.85 337.40 985.66 338.23
  Q 985.21 338.40 985.10 338.88
  L 978.59 366.96
  Q 978.49 367.38 978.89 367.54
  C 998.09 375.13 1017.36 376.82 1038.04 375.52
  C 1059.25 374.18 1086.10 364.34 1088.49 340.01
  C 1092.34 300.80 1027.12 310.93 1028.08 294.81
  C 1028.37 289.80 1033.39 286.43 1038.25 285.49
  C 1057.20 281.83 1072.40 286.36 1087.93 296.92
  A 2.42 2.42 0.0 0 0 1091.65 295.46
  L 1097.64 269.38
  A 0.93 0.93 0.0 0 0 1097.04 268.30
  Q 1065.60 257.19 1032.82 262.86
  C 1014.82 265.98 995.63 276.71 993.46 296.36"
/>
<path stroke="#808080" vector-effect="non-scaling-stroke" d="
  M 1574.34 360.80
  L 1571.92 371.39
  Q 1571.78 372.00 1572.41 372.00
  L 1606.82 372.00
  Q 1607.48 372.00 1607.63 371.35
  L 1632.63 263.76
  A 0.62 0.62 0.0 0 0 1632.03 263.00
  L 1598.07 263.00
  Q 1597.14 263.00 1596.93 263.91
  L 1579.33 339.04
  Q 1579.22 339.52 1578.79 339.77
  C 1565.32 347.51 1536.93 355.28 1543.44 326.24
  Q 1550.50 294.81 1557.96 263.59
  A 0.48 0.48 0.0 0 0 1557.49 263.00
  L 1522.97 263.00
  A 0.99 0.99 0.0 0 0 1522.01 263.76
  Q 1514.04 297.60 1506.32 331.06
  C 1501.80 350.67 1503.00 371.41 1527.95 374.58
  C 1546.18 376.89 1559.37 370.28 1573.96 360.54
  Q 1574.48 360.20 1574.34 360.80"
/>
<path stroke="#808080" vector-effect="non-scaling-stroke" d="
  M 1373.20 279.49
  L 1375.44 269.66
  A 0.54 0.53 -83.5 0 0 1374.92 269.00
  L 1342.30 269.00
  Q 1341.64 269.00 1341.49 269.64
  L 1317.69 372.37
  Q 1317.55 373.00 1318.19 373.00
  L 1350.97 373.00
  A 0.56 0.54 -83.3 0 0 1351.50 372.57
  Q 1359.99 336.26 1368.59 299.88
  Q 1368.83 298.89 1370.34 298.12
  C 1378.51 293.98 1385.25 290.98 1394.09 292.83
  C 1405.14 295.15 1399.68 312.01 1398.14 318.93
  Q 1392.15 345.77 1385.99 372.34
  A 0.53 0.53 0.0 0 0 1386.51 373.00
  L 1419.18 373.00
  A 0.96 0.96 0.0 0 0 1420.12 372.25
  L 1436.86 299.76
  Q 1436.99 299.20 1437.49 298.91
  C 1445.95 294.06 1453.93 290.80 1463.00 293.06
  C 1473.28 295.61 1468.48 310.59 1466.85 317.91
  Q 1460.78 345.18 1454.38 372.50
  Q 1454.26 373.00 1454.77 373.00
  L 1487.99 373.00
  A 0.51 0.51 0.0 0 0 1488.49 372.60
  Q 1496.37 338.84 1504.08 305.02
  C 1509.55 281.02 1500.36 264.18 1474.61 266.06
  C 1460.82 267.07 1447.95 275.31 1436.71 283.51
  Q 1436.23 283.87 1436.02 283.30
  C 1431.97 272.00 1423.42 266.95 1411.90 266.04
  C 1397.23 264.89 1385.87 271.94 1373.57 279.75
  Q 1373.07 280.07 1373.20 279.49"
/>
<path stroke="#4f0808" vector-effect="non-scaling-stroke" d="
  M 307.00 273.27
  A 0.27 0.27 0.0 0 0 306.73 273.00
  L 201.27 273.00
  A 0.27 0.27 0.0 0 0 201.00 273.27
  L 201.00 330.73
  A 0.27 0.27 0.0 0 0 201.27 331.00
  L 306.73 331.00
  A 0.27 0.27 0.0 0 0 307.00 330.73
  L 307.00 273.27"
/>
<path stroke="#4f0808" vector-effect="non-scaling-stroke" d="
  M 567.00 273.27
  A 0.27 0.27 0.0 0 0 566.73 273.00
  L 461.27 273.00
  A 0.27 0.27 0.0 0 0 461.00 273.27
  L 461.00 330.73
  A 0.27 0.27 0.0 0 0 461.27 331.00
  L 566.73 331.00
  A 0.27 0.27 0.0 0 0 567.00 330.73
  L 567.00 273.27"
/>
<path stroke="#808080" vector-effect="non-scaling-stroke" d="
  M 1237.16 341.74
  C 1237.09 346.87 1240.25 349.73 1245.00 350.79
  C 1256.37 353.31 1266.41 350.05 1275.72 343.71
  A 2.50 2.49 -10.7 0 0 1276.75 342.21
  L 1281.76 320.80
  Q 1281.86 320.38 1281.43 320.41
  C 1270.16 321.15 1258.45 322.15 1247.78 326.01
  Q 1237.33 329.79 1237.16 341.74"
/>
<path stroke="#808080" vector-effect="non-scaling-stroke" d="
  M 1813.32 302.57
  C 1817.90 288.25 1804.97 282.19 1793.15 283.37
  Q 1773.92 285.29 1766.88 302.44
  Q 1766.65 303.00 1767.25 303.00
  L 1812.74 303.00
  Q 1813.19 303.00 1813.32 302.57"
/>
<path stroke="#808080" vector-effect="non-scaling-stroke" d="
  M 906.44 350.31
  C 917.18 355.64 930.51 351.62 940.36 344.96
  Q 940.83 344.64 940.96 344.09
  L 945.91 323.76
  Q 946.00 323.35 945.59 323.38
  Q 934.39 324.09 923.32 325.88
  C 913.09 327.53 902.76 331.24 902.90 343.73
  Q 902.95 348.58 906.44 350.31"
/>
</g>
<path fill="#000000" d="
  M 0.00 0.00
  L 1920.00 0.00
  L 1920.00 600.00
  L 0.00 600.00
  L 0.00 0.00
  Z
  M 375.77 414.90
  C 378.65 417.05 380.87 420.03 383.28 422.73
  A 1.17 1.17 0.0 0 0 385.12 422.62
  C 396.47 406.32 423.24 397.70 442.00 396.02
  Q 451.11 395.20 473.09 396.00
  C 477.89 396.17 482.47 397.43 487.59 398.13
  Q 509.47 401.12 526.41 413.05
  Q 543.95 425.43 536.52 446.54
  Q 536.27 447.26 536.98 447.00
  Q 541.59 445.33 551.30 440.80
  C 617.88 409.73 676.58 357.82 692.70 283.28
  C 696.89 263.92 697.04 243.73 694.51 224.15
  C 693.94 219.75 692.49 215.26 691.42 210.78
  C 687.46 194.18 681.62 178.64 673.37 163.75
  A 0.63 0.62 56.2 0 0 672.44 163.56
  C 642.11 187.03 605.04 200.04 568.22 208.90
  Q 521.76 220.07 474.18 224.62
  C 390.36 232.63 303.53 230.43 220.81 213.71
  C 177.84 205.03 130.27 191.05 95.64 163.45
  Q 95.21 163.10 94.91 163.57
  C 87.28 175.44 81.19 191.89 77.77 205.95
  C 76.05 212.99 73.92 220.19 73.12 226.89
  Q 70.03 252.79 74.20 278.62
  C 74.50 280.48 75.30 282.18 75.74 284.24
  C 92.36 362.66 159.93 418.52 230.94 447.01
  A 0.43 0.43 0.0 0 0 231.50 446.44
  C 225.60 432.12 231.63 418.82 244.31 411.06
  C 265.89 397.86 291.63 395.14 316.48 395.70
  Q 328.51 395.97 336.37 397.47
  Q 357.96 401.58 375.77 414.90
  Z
  M 1134.99 311.01
  L 1155.46 221.53
  Q 1155.59 221.00 1155.04 221.00
  L 1120.53 221.00
  Q 1119.85 221.00 1119.70 221.66
  L 1084.99 372.32
  A 0.55 0.55 0.0 0 0 1085.53 373.00
  L 1120.01 373.00
  Q 1120.55 373.00 1120.67 372.47
  L 1128.51 339.32
  A 1.82 1.77 -14.7 0 1 1129.07 338.39
  L 1143.59 325.57
  Q 1143.94 325.26 1144.13 325.68
  L 1165.16 372.60
  Q 1165.34 373.00 1165.77 373.00
  L 1202.21 373.00
  Q 1202.76 373.00 1202.53 372.50
  L 1173.76 312.01
  Q 1173.53 311.53 1173.92 311.17
  L 1223.68 264.63
  A 0.37 0.36 -66.3 0 0 1223.44 264.00
  L 1183.73 264.00
  A 1.28 1.27 22.7 0 0 1182.84 264.36
  L 1135.25 311.16
  Q 1134.88 311.52 1134.99 311.01
  Z
  M 756.26 275.75
  L 768.75 338.44
  A 0.69 0.69 0.0 0 0 769.43 339.00
  L 794.53 339.00
  Q 795.15 339.00 795.49 338.48
  L 834.39 279.31
  Q 834.41 279.28 834.40 279.32
  Q 823.68 325.66 812.92 372.26
  Q 812.75 373.00 813.51 373.00
  L 850.04 373.00
  A 0.70 0.69 6.2 0 0 850.72 372.46
  L 884.03 228.71
  A 0.58 0.58 0.0 0 0 883.46 228.00
  L 840.04 228.00
  Q 839.52 228.00 839.24 228.42
  L 790.76 299.81
  Q 790.43 300.30 790.30 299.72
  L 774.74 228.55
  Q 774.62 228.00 774.05 228.00
  L 731.96 228.00
  A 1.02 1.02 0.0 0 0 730.97 228.79
  L 697.75 372.30
  Q 697.59 373.00 698.30 373.00
  L 732.95 373.00
  A 0.68 0.68 0.0 0 0 733.61 372.47
  L 756.01 275.75
  Q 756.14 275.17 756.26 275.75
  Z
  M 1272.18 362.01
  L 1269.82 372.38
  A 0.51 0.51 0.0 0 0 1270.32 373.00
  L 1305.72 373.00
  Q 1306.19 373.00 1306.30 372.55
  Q 1314.78 336.95 1322.77 301.24
  Q 1325.67 288.29 1325.24 283.09
  C 1323.50 262.29 1300.90 258.01 1284.23 257.25
  Q 1255.11 255.93 1227.74 262.49
  A 1.06 1.05 -1.4 0 0 1226.95 263.31
  L 1221.81 289.50
  Q 1221.71 290.01 1222.23 290.00
  C 1228.15 289.91 1234.24 287.23 1239.89 285.52
  C 1249.97 282.47 1293.54 276.06 1287.03 298.47
  Q 1286.90 298.91 1286.44 298.94
  Q 1268.09 299.74 1246.75 303.23
  C 1223.01 307.10 1198.22 318.92 1198.86 347.19
  C 1199.13 358.83 1204.04 367.54 1214.43 372.61
  C 1221.33 375.98 1228.07 376.20 1235.63 375.95
  C 1250.36 375.45 1259.86 369.26 1271.83 361.76
  Q 1272.31 361.45 1272.18 362.01
  Z
  M 1640.44 318.56
  C 1653.00 327.98 1670.45 330.13 1685.34 334.68
  C 1689.08 335.83 1691.79 337.94 1691.51 341.95
  C 1691.05 348.45 1682.35 350.72 1677.00 351.23
  Q 1648.69 353.92 1627.41 337.60
  C 1625.41 336.06 1623.40 336.68 1622.78 339.29
  Q 1619.66 352.50 1616.67 365.93
  Q 1616.55 366.48 1617.07 366.68
  C 1638.35 374.97 1663.20 377.06 1686.23 373.16
  C 1701.48 370.58 1719.02 362.58 1724.54 347.20
  C 1729.39 333.69 1725.90 320.21 1712.44 313.53
  C 1699.91 307.30 1687.01 305.49 1674.16 301.55
  C 1669.42 300.10 1664.64 297.22 1666.56 291.74
  C 1668.40 286.51 1674.50 284.56 1679.69 283.90
  Q 1705.34 280.64 1725.53 295.74
  Q 1726.62 296.56 1728.96 295.81
  Q 1729.37 295.68 1729.47 295.26
  L 1735.54 268.78
  A 1.52 1.52 0.0 0 0 1734.54 267.00
  Q 1712.40 259.66 1690.47 260.01
  C 1672.60 260.29 1649.46 264.16 1637.79 279.56
  C 1629.21 290.88 1627.96 309.21 1640.44 318.56
  Z
  M 1763.52 324.00
  L 1844.00 324.00
  A 0.37 0.36 10.5 0 0 1844.34 323.77
  Q 1850.40 308.81 1848.81 293.07
  C 1845.78 263.25 1816.35 258.62 1792.24 260.29
  C 1761.55 262.41 1737.05 281.48 1730.01 312.00
  C 1725.79 330.29 1728.29 351.10 1743.28 362.73
  C 1766.47 380.73 1806.23 376.99 1832.17 366.35
  A 1.00 0.98 86.0 0 0 1832.76 365.66
  L 1839.06 338.77
  Q 1839.22 338.11 1838.54 338.04
  C 1836.65 337.85 1835.14 337.82 1833.35 338.81
  C 1819.45 346.42 1804.51 351.14 1788.82 349.44
  C 1773.47 347.78 1762.73 341.13 1763.03 324.49
  Q 1763.04 324.00 1763.52 324.00
  Z
  M 936.62 362.33
  L 934.45 371.96
  Q 934.21 373.00 935.27 373.00
  L 968.98 373.00
  Q 969.56 373.00 969.69 372.44
  Q 978.02 336.49 986.34 300.54
  C 987.64 294.90 988.31 289.19 987.64 284.07
  C 983.34 251.03 913.82 261.51 893.59 266.38
  A 0.85 0.84 -1.7 0 0 892.96 267.04
  L 888.02 292.29
  Q 887.89 292.96 888.58 292.99
  C 889.66 293.03 891.26 293.14 892.32 292.76
  C 908.12 287.13 923.16 283.33 939.22 286.31
  C 947.95 287.93 953.74 291.68 950.98 301.48
  Q 950.85 301.93 950.39 301.95
  Q 931.08 302.87 912.01 306.06
  C 887.68 310.12 863.49 322.29 865.94 351.33
  C 867.07 364.79 877.24 373.73 890.19 375.51
  C 908.74 378.06 921.41 372.03 936.25 362.08
  Q 936.75 361.74 936.62 362.33
  Z
  M 993.46 296.36
  C 990.11 326.79 1027.80 329.62 1047.83 335.87
  C 1051.58 337.04 1054.09 339.58 1053.42 343.55
  C 1052.57 348.57 1046.60 351.12 1042.01 351.82
  Q 1012.37 356.35 988.98 338.27
  Q 987.85 337.40 985.66 338.23
  Q 985.21 338.40 985.10 338.88
  L 978.59 366.96
  Q 978.49 367.38 978.89 367.54
  C 998.09 375.13 1017.36 376.82 1038.04 375.52
  C 1059.25 374.18 1086.10 364.34 1088.49 340.01
  C 1092.34 300.80 1027.12 310.93 1028.08 294.81
  C 1028.37 289.80 1033.39 286.43 1038.25 285.49
  C 1057.20 281.83 1072.40 286.36 1087.93 296.92
  A 2.42 2.42 0.0 0 0 1091.65 295.46
  L 1097.64 269.38
  A 0.93 0.93 0.0 0 0 1097.04 268.30
  Q 1065.60 257.19 1032.82 262.86
  C 1014.82 265.98 995.63 276.71 993.46 296.36
  Z
  M 1574.34 360.80
  L 1571.92 371.39
  Q 1571.78 372.00 1572.41 372.00
  L 1606.82 372.00
  Q 1607.48 372.00 1607.63 371.35
  L 1632.63 263.76
  A 0.62 0.62 0.0 0 0 1632.03 263.00
  L 1598.07 263.00
  Q 1597.14 263.00 1596.93 263.91
  L 1579.33 339.04
  Q 1579.22 339.52 1578.79 339.77
  C 1565.32 347.51 1536.93 355.28 1543.44 326.24
  Q 1550.50 294.81 1557.96 263.59
  A 0.48 0.48 0.0 0 0 1557.49 263.00
  L 1522.97 263.00
  A 0.99 0.99 0.0 0 0 1522.01 263.76
  Q 1514.04 297.60 1506.32 331.06
  C 1501.80 350.67 1503.00 371.41 1527.95 374.58
  C 1546.18 376.89 1559.37 370.28 1573.96 360.54
  Q 1574.48 360.20 1574.34 360.80
  Z
  M 1373.20 279.49
  L 1375.44 269.66
  A 0.54 0.53 -83.5 0 0 1374.92 269.00
  L 1342.30 269.00
  Q 1341.64 269.00 1341.49 269.64
  L 1317.69 372.37
  Q 1317.55 373.00 1318.19 373.00
  L 1350.97 373.00
  A 0.56 0.54 -83.3 0 0 1351.50 372.57
  Q 1359.99 336.26 1368.59 299.88
  Q 1368.83 298.89 1370.34 298.12
  C 1378.51 293.98 1385.25 290.98 1394.09 292.83
  C 1405.14 295.15 1399.68 312.01 1398.14 318.93
  Q 1392.15 345.77 1385.99 372.34
  A 0.53 0.53 0.0 0 0 1386.51 373.00
  L 1419.18 373.00
  A 0.96 0.96 0.0 0 0 1420.12 372.25
  L 1436.86 299.76
  Q 1436.99 299.20 1437.49 298.91
  C 1445.95 294.06 1453.93 290.80 1463.00 293.06
  C 1473.28 295.61 1468.48 310.59 1466.85 317.91
  Q 1460.78 345.18 1454.38 372.50
  Q 1454.26 373.00 1454.77 373.00
  L 1487.99 373.00
  A 0.51 0.51 0.0 0 0 1488.49 372.60
  Q 1496.37 338.84 1504.08 305.02
  C 1509.55 281.02 1500.36 264.18 1474.61 266.06
  C 1460.82 267.07 1447.95 275.31 1436.71 283.51
  Q 1436.23 283.87 1436.02 283.30
  C 1431.97 272.00 1423.42 266.95 1411.90 266.04
  C 1397.23 264.89 1385.87 271.94 1373.57 279.75
  Q 1373.07 280.07 1373.20 279.49
  Z"
/>
<path fill="#9e0f0f" d="
  M 375.77 414.90
  Q 357.96 401.58 336.37 397.47
  Q 328.51 395.97 316.48 395.70
  C 291.63 395.14 265.89 397.86 244.31 411.06
  C 231.63 418.82 225.60 432.12 231.50 446.44
  A 0.43 0.43 0.0 0 1 230.94 447.01
  C 159.93 418.52 92.36 362.66 75.74 284.24
  C 75.30 282.18 74.50 280.48 74.20 278.62
  Q 70.03 252.79 73.12 226.89
  C 73.92 220.19 76.05 212.99 77.77 205.95
  C 81.19 191.89 87.28 175.44 94.91 163.57
  Q 95.21 163.10 95.64 163.45
  C 130.27 191.05 177.84 205.03 220.81 213.71
  C 303.53 230.43 390.36 232.63 474.18 224.62
  Q 521.76 220.07 568.22 208.90
  C 605.04 200.04 642.11 187.03 672.44 163.56
  A 0.63 0.62 56.2 0 1 673.37 163.75
  C 681.62 178.64 687.46 194.18 691.42 210.78
  C 692.49 215.26 693.94 219.75 694.51 224.15
  C 697.04 243.73 696.89 263.92 692.70 283.28
  C 676.58 357.82 617.88 409.73 551.30 440.80
  Q 541.59 445.33 536.98 447.00
  Q 536.27 447.26 536.52 446.54
  Q 543.95 425.43 526.41 413.05
  Q 509.47 401.12 487.59 398.13
  C 482.47 397.43 477.89 396.17 473.09 396.00
  Q 451.11 395.20 442.00 396.02
  C 423.24 397.70 396.47 406.32 385.12 422.62
  A 1.17 1.17 0.0 0 1 383.28 422.73
  C 380.87 420.03 378.65 417.05 375.77 414.90
  Z
  M 307.00 273.27
  A 0.27 0.27 0.0 0 0 306.73 273.00
  L 201.27 273.00
  A 0.27 0.27 0.0 0 0 201.00 273.27
  L 201.00 330.73
  A 0.27 0.27 0.0 0 0 201.27 331.00
  L 306.73 331.00
  A 0.27 0.27 0.0 0 0 307.00 330.73
  L 307.00 273.27
  Z
  M 567.00 273.27
  A 0.27 0.27 0.0 0 0 566.73 273.00
  L 461.27 273.00
  A 0.27 0.27 0.0 0 0 461.00 273.27
  L 461.00 330.73
  A 0.27 0.27 0.0 0 0 461.27 331.00
  L 566.73 331.00
  A 0.27 0.27 0.0 0 0 567.00 330.73
  L 567.00 273.27
  Z"
/>
<path fill="#ffffff" d="
  M 1135.25 311.16
  L 1182.84 264.36
  A 1.28 1.27 22.7 0 1 1183.73 264.00
  L 1223.44 264.00
  A 0.37 0.36 -66.3 0 1 1223.68 264.63
  L 1173.92 311.17
  Q 1173.53 311.53 1173.76 312.01
  L 1202.53 372.50
  Q 1202.76 373.00 1202.21 373.00
  L 1165.77 373.00
  Q 1165.34 373.00 1165.16 372.60
  L 1144.13 325.68
  Q 1143.94 325.26 1143.59 325.57
  L 1129.07 338.39
  A 1.82 1.77 -14.7 0 0 1128.51 339.32
  L 1120.67 372.47
  Q 1120.55 373.00 1120.01 373.00
  L 1085.53 373.00
  A 0.55 0.55 0.0 0 1 1084.99 372.32
  L 1119.70 221.66
  Q 1119.85 221.00 1120.53 221.00
  L 1155.04 221.00
  Q 1155.59 221.00 1155.46 221.53
  L 1134.99 311.01
  Q 1134.88 311.52 1135.25 311.16
  Z"
/>
<path fill="#ffffff" d="
  M 756.01 275.75
  L 733.61 372.47
  A 0.68 0.68 0.0 0 1 732.95 373.00
  L 698.30 373.00
  Q 697.59 373.00 697.75 372.30
  L 730.97 228.79
  A 1.02 1.02 0.0 0 1 731.96 228.00
  L 774.05 228.00
  Q 774.62 228.00 774.74 228.55
  L 790.30 299.72
  Q 790.43 300.30 790.76 299.81
  L 839.24 228.42
  Q 839.52 228.00 840.04 228.00
  L 883.46 228.00
  A 0.58 0.58 0.0 0 1 884.03 228.71
  L 850.72 372.46
  A 0.70 0.69 6.2 0 1 850.04 373.00
  L 813.51 373.00
  Q 812.75 373.00 812.92 372.26
  Q 823.68 325.66 834.40 279.32
  Q 834.41 279.28 834.39 279.31
  L 795.49 338.48
  Q 795.15 339.00 794.53 339.00
  L 769.43 339.00
  A 0.69 0.69 0.0 0 1 768.75 338.44
  L 756.26 275.75
  Q 756.14 275.17 756.01 275.75
  Z"
/>
<path fill="#ffffff" d="
  M 1271.83 361.76
  C 1259.86 369.26 1250.36 375.45 1235.63 375.95
  C 1228.07 376.20 1221.33 375.98 1214.43 372.61
  C 1204.04 367.54 1199.13 358.83 1198.86 347.19
  C 1198.22 318.92 1223.01 307.10 1246.75 303.23
  Q 1268.09 299.74 1286.44 298.94
  Q 1286.90 298.91 1287.03 298.47
  C 1293.54 276.06 1249.97 282.47 1239.89 285.52
  C 1234.24 287.23 1228.15 289.91 1222.23 290.00
  Q 1221.71 290.01 1221.81 289.50
  L 1226.95 263.31
  A 1.06 1.05 -1.4 0 1 1227.74 262.49
  Q 1255.11 255.93 1284.23 257.25
  C 1300.90 258.01 1323.50 262.29 1325.24 283.09
  Q 1325.67 288.29 1322.77 301.24
  Q 1314.78 336.95 1306.30 372.55
  Q 1306.19 373.00 1305.72 373.00
  L 1270.32 373.00
  A 0.51 0.51 0.0 0 1 1269.82 372.38
  L 1272.18 362.01
  Q 1272.31 361.45 1271.83 361.76
  Z
  M 1237.16 341.74
  C 1237.09 346.87 1240.25 349.73 1245.00 350.79
  C 1256.37 353.31 1266.41 350.05 1275.72 343.71
  A 2.50 2.49 -10.7 0 0 1276.75 342.21
  L 1281.76 320.80
  Q 1281.86 320.38 1281.43 320.41
  C 1270.16 321.15 1258.45 322.15 1247.78 326.01
  Q 1237.33 329.79 1237.16 341.74
  Z"
/>
<path fill="#ffffff" d="
  M 1640.44 318.56
  C 1627.96 309.21 1629.21 290.88 1637.79 279.56
  C 1649.46 264.16 1672.60 260.29 1690.47 260.01
  Q 1712.40 259.66 1734.54 267.00
  A 1.52 1.52 0.0 0 1 1735.54 268.78
  L 1729.47 295.26
  Q 1729.37 295.68 1728.96 295.81
  Q 1726.62 296.56 1725.53 295.74
  Q 1705.34 280.64 1679.69 283.90
  C 1674.50 284.56 1668.40 286.51 1666.56 291.74
  C 1664.64 297.22 1669.42 300.10 1674.16 301.55
  C 1687.01 305.49 1699.91 307.30 1712.44 313.53
  C 1725.90 320.21 1729.39 333.69 1724.54 347.20
  C 1719.02 362.58 1701.48 370.58 1686.23 373.16
  C 1663.20 377.06 1638.35 374.97 1617.07 366.68
  Q 1616.55 366.48 1616.67 365.93
  Q 1619.66 352.50 1622.78 339.29
  C 1623.40 336.68 1625.41 336.06 1627.41 337.60
  Q 1648.69 353.92 1677.00 351.23
  C 1682.35 350.72 1691.05 348.45 1691.51 341.95
  C 1691.79 337.94 1689.08 335.83 1685.34 334.68
  C 1670.45 330.13 1653.00 327.98 1640.44 318.56
  Z"
/>
<path fill="#ffffff" d="
  M 1763.03 324.49
  C 1762.73 341.13 1773.47 347.78 1788.82 349.44
  C 1804.51 351.14 1819.45 346.42 1833.35 338.81
  C 1835.14 337.82 1836.65 337.85 1838.54 338.04
  Q 1839.22 338.11 1839.06 338.77
  L 1832.76 365.66
  A 1.00 0.98 86.0 0 1 1832.17 366.35
  C 1806.23 376.99 1766.47 380.73 1743.28 362.73
  C 1728.29 351.10 1725.79 330.29 1730.01 312.00
  C 1737.05 281.48 1761.55 262.41 1792.24 260.29
  C 1816.35 258.62 1845.78 263.25 1848.81 293.07
  Q 1850.40 308.81 1844.34 323.77
  A 0.37 0.36 10.5 0 1 1844.00 324.00
  L 1763.52 324.00
  Q 1763.04 324.00 1763.03 324.49
  Z
  M 1813.32 302.57
  C 1817.90 288.25 1804.97 282.19 1793.15 283.37
  Q 1773.92 285.29 1766.88 302.44
  Q 1766.65 303.00 1767.25 303.00
  L 1812.74 303.00
  Q 1813.19 303.00 1813.32 302.57
  Z"
/>
<path fill="#ffffff" d="
  M 936.25 362.08
  C 921.41 372.03 908.74 378.06 890.19 375.51
  C 877.24 373.73 867.07 364.79 865.94 351.33
  C 863.49 322.29 887.68 310.12 912.01 306.06
  Q 931.08 302.87 950.39 301.95
  Q 950.85 301.93 950.98 301.48
  C 953.74 291.68 947.95 287.93 939.22 286.31
  C 923.16 283.33 908.12 287.13 892.32 292.76
  C 891.26 293.14 889.66 293.03 888.58 292.99
  Q 887.89 292.96 888.02 292.29
  L 892.96 267.04
  A 0.85 0.84 -1.7 0 1 893.59 266.38
  C 913.82 261.51 983.34 251.03 987.64 284.07
  C 988.31 289.19 987.64 294.90 986.34 300.54
  Q 978.02 336.49 969.69 372.44
  Q 969.56 373.00 968.98 373.00
  L 935.27 373.00
  Q 934.21 373.00 934.45 371.96
  L 936.62 362.33
  Q 936.75 361.74 936.25 362.08
  Z
  M 906.44 350.31
  C 917.18 355.64 930.51 351.62 940.36 344.96
  Q 940.83 344.64 940.96 344.09
  L 945.91 323.76
  Q 946.00 323.35 945.59 323.38
  Q 934.39 324.09 923.32 325.88
  C 913.09 327.53 902.76 331.24 902.90 343.73
  Q 902.95 348.58 906.44 350.31
  Z"
/>
<path fill="#ffffff" d="
  M 1047.83 335.87
  C 1027.80 329.62 990.11 326.79 993.46 296.36
  C 995.63 276.71 1014.82 265.98 1032.82 262.86
  Q 1065.60 257.19 1097.04 268.30
  A 0.93 0.93 0.0 0 1 1097.64 269.38
  L 1091.65 295.46
  A 2.42 2.42 0.0 0 1 1087.93 296.92
  C 1072.40 286.36 1057.20 281.83 1038.25 285.49
  C 1033.39 286.43 1028.37 289.80 1028.08 294.81
  C 1027.12 310.93 1092.34 300.80 1088.49 340.01
  C 1086.10 364.34 1059.25 374.18 1038.04 375.52
  C 1017.36 376.82 998.09 375.13 978.89 367.54
  Q 978.49 367.38 978.59 366.96
  L 985.10 338.88
  Q 985.21 338.40 985.66 338.23
  Q 987.85 337.40 988.98 338.27
  Q 1012.37 356.35 1042.01 351.82
  C 1046.60 351.12 1052.57 348.57 1053.42 343.55
  C 1054.09 339.58 1051.58 337.04 1047.83 335.87
  Z"
/>
<path fill="#ffffff" d="
  M 1573.96 360.54
  C 1559.37 370.28 1546.18 376.89 1527.95 374.58
  C 1503.00 371.41 1501.80 350.67 1506.32 331.06
  Q 1514.04 297.60 1522.01 263.76
  A 0.99 0.99 0.0 0 1 1522.97 263.00
  L 1557.49 263.00
  A 0.48 0.48 0.0 0 1 1557.96 263.59
  Q 1550.50 294.81 1543.44 326.24
  C 1536.93 355.28 1565.32 347.51 1578.79 339.77
  Q 1579.22 339.52 1579.33 339.04
  L 1596.93 263.91
  Q 1597.14 263.00 1598.07 263.00
  L 1632.03 263.00
  A 0.62 0.62 0.0 0 1 1632.63 263.76
  L 1607.63 371.35
  Q 1607.48 372.00 1606.82 372.00
  L 1572.41 372.00
  Q 1571.78 372.00 1571.92 371.39
  L 1574.34 360.80
  Q 1574.48 360.20 1573.96 360.54
  Z"
/>
<path fill="#ffffff" d="
  M 1373.57 279.75
  C 1385.87 271.94 1397.23 264.89 1411.90 266.04
  C 1423.42 266.95 1431.97 272.00 1436.02 283.30
  Q 1436.23 283.87 1436.71 283.51
  C 1447.95 275.31 1460.82 267.07 1474.61 266.06
  C 1500.36 264.18 1509.55 281.02 1504.08 305.02
  Q 1496.37 338.84 1488.49 372.60
  A 0.51 0.51 0.0 0 1 1487.99 373.00
  L 1454.77 373.00
  Q 1454.26 373.00 1454.38 372.50
  Q 1460.78 345.18 1466.85 317.91
  C 1468.48 310.59 1473.28 295.61 1463.00 293.06
  C 1453.93 290.80 1445.95 294.06 1437.49 298.91
  Q 1436.99 299.20 1436.86 299.76
  L 1420.12 372.25
  A 0.96 0.96 0.0 0 1 1419.18 373.00
  L 1386.51 373.00
  A 0.53 0.53 0.0 0 1 1385.99 372.34
  Q 1392.15 345.77 1398.14 318.93
  C 1399.68 312.01 1405.14 295.15 1394.09 292.83
  C 1385.25 290.98 1378.51 293.98 1370.34 298.12
  Q 1368.83 298.89 1368.59 299.88
  Q 1359.99 336.26 1351.50 372.57
  A 0.56 0.54 -83.3 0 1 1350.97 373.00
  L 1318.19 373.00
  Q 1317.55 373.00 1317.69 372.37
  L 1341.49 269.64
  Q 1341.64 269.00 1342.30 269.00
  L 1374.92 269.00
  A 0.54 0.53 -83.5 0 1 1375.44 269.66
  L 1373.20 279.49
  Q 1373.07 280.07 1373.57 279.75
  Z"
/>
<rect fill="#000000" x="201.00" y="273.00" width="106.00" height="58.00" rx="0.27"/>
<rect fill="#000000" x="461.00" y="273.00" width="106.00" height="58.00" rx="0.27"/>
<path fill="#000000" d="
  M 1793.15 283.37
  C 1804.97 282.19 1817.90 288.25 1813.32 302.57
  Q 1813.19 303.00 1812.74 303.00
  L 1767.25 303.00
  Q 1766.65 303.00 1766.88 302.44
  Q 1773.92 285.29 1793.15 283.37
  Z"
/>
<path fill="#000000" d="
  M 1245.00 350.79
  C 1240.25 349.73 1237.09 346.87 1237.16 341.74
  Q 1237.33 329.79 1247.78 326.01
  C 1258.45 322.15 1270.16 321.15 1281.43 320.41
  Q 1281.86 320.38 1281.76 320.80
  L 1276.75 342.21
  A 2.50 2.49 -10.7 0 1 1275.72 343.71
  C 1266.41 350.05 1256.37 353.31 1245.00 350.79
  Z"
/>
<path fill="#000000" d="
  M 906.44 350.31
  Q 902.95 348.58 902.90 343.73
  C 902.76 331.24 913.09 327.53 923.32 325.88
  Q 934.39 324.09 945.59 323.38
  Q 946.00 323.35 945.91 323.76
  L 940.96 344.09
  Q 940.83 344.64 940.36 344.96
  C 930.51 351.62 917.18 355.64 906.44 350.31
  Z"
/>
</svg>
